<svg width="700" height="913" viewBox="0 0 700 913" fill="none" xmlns="http://www.w3.org/2000/svg">
  <g clip-path="url(#clip0_304_158)">
    <path d="M475.01 75H225.01H100V325H225.01V200H475.01V325H600V75H475.01Z" fill="rgba(255,255,255,0.05)" />
    <path
      d="M408.51 262.5H291.51C289.301 262.5 287.51 264.291 287.51 266.5V508.5C287.51 510.709 289.301 512.5 291.51 512.5H408.51C410.719 512.5 412.51 510.709 412.51 508.5V266.5C412.51 264.291 410.719 262.5 408.51 262.5Z"
      fill="rgba(255,255,255,0.05)" />
    <path
      d="M475.01 533.95L348.26 660.67L225.01 537.41V387.49H100V589.76H100.57L348.26 837.46V837.45V837.46L599.45 586.28H600V387.49H475.01V533.95Z"
      fill="rgba(255,255,255,0.05)" />
  </g>
  <defs>
    <clipPath id="clip0_304_158">
      <rect width="700" height="913" fill="white" />
    </clipPath>
  </defs>
</svg>